<svg width="32" height="32" viewBox="0 0 32 32" fill="none" xmlns="http://www.w3.org/2000/svg">
<path d="M22.1009 11.2704C22.8583 11.2704 23.4724 10.6564 23.4724 9.89902C23.4724 9.1416 22.8583 8.52759 22.1009 8.52759C21.3435 8.52759 20.7295 9.1416 20.7295 9.89902C20.7295 10.6564 21.3435 11.2704 22.1009 11.2704Z" fill="#26123B"/>
<path d="M15.9999 10.1316C14.8392 10.1316 13.7046 10.4758 12.7395 11.1206C11.7744 11.7655 11.0222 12.682 10.5781 13.7544C10.1339 14.8267 10.0177 16.0067 10.2441 17.1451C10.4706 18.2835 11.0295 19.3291 11.8502 20.1499C12.6709 20.9706 13.7166 21.5295 14.855 21.756C15.9934 21.9824 17.1734 21.8662 18.2457 21.422C19.3181 20.9778 20.2346 20.2256 20.8795 19.2606C21.5243 18.2955 21.8685 17.1609 21.8685 16.0002C21.8685 14.4437 21.2502 12.951 20.1496 11.8505C19.0491 10.7499 17.5564 10.1316 15.9999 10.1316ZM15.9999 19.8097C15.2465 19.8097 14.5099 19.5863 13.8835 19.1677C13.257 18.7491 12.7687 18.1541 12.4804 17.458C12.192 16.7619 12.1166 15.9959 12.2636 15.257C12.4106 14.518 12.7734 13.8392 13.3062 13.3064C13.839 12.7737 14.5177 12.4108 15.2567 12.2638C15.9957 12.1168 16.7617 12.1923 17.4578 12.4806C18.1539 12.769 18.7488 13.2572 19.1674 13.8837C19.586 14.5102 19.8094 15.2467 19.8094 16.0002C19.8094 17.0105 19.4081 17.9795 18.6937 18.6939C17.9792 19.4083 17.0103 19.8097 15.9999 19.8097Z" fill="#26123B"/>
<path d="M15.9999 6.63058C19.0513 6.63058 19.4133 6.64201 20.618 6.69725C21.3426 6.70585 22.0604 6.8389 22.7399 7.09058C23.2329 7.28076 23.6807 7.57205 24.0543 7.9457C24.428 8.31936 24.7193 8.76709 24.9094 9.2601C25.1611 9.93966 25.2942 10.6574 25.3028 11.382C25.358 12.5868 25.3694 12.9487 25.3694 16.0011C25.3694 19.0534 25.358 19.4134 25.3028 20.6182C25.2942 21.3428 25.1611 22.0606 24.9094 22.7401C24.7193 23.2331 24.428 23.6809 24.0543 24.0545C23.6807 24.4282 23.2329 24.7194 22.7399 24.9096C22.0604 25.1613 21.3426 25.2944 20.618 25.303C19.4133 25.3582 19.0513 25.3696 15.9999 25.3696C12.9485 25.3696 12.5866 25.3582 11.3818 25.303C10.6572 25.2944 9.93947 25.1613 9.25992 24.9096C8.76691 24.7194 8.31917 24.4282 7.94552 24.0545C7.57187 23.6809 7.28058 23.2331 7.0904 22.7401C6.83871 22.0606 6.70567 21.3428 6.69706 20.6182C6.64183 19.4134 6.6304 19.0515 6.6304 16.0001C6.6304 12.9487 6.64183 12.5868 6.69706 11.382C6.70567 10.6574 6.83871 9.93966 7.0904 9.2601C7.28058 8.76709 7.57187 8.31936 7.94552 7.9457C8.31917 7.57205 8.76691 7.28076 9.25992 7.09058C9.93947 6.8389 10.6572 6.70585 11.3818 6.69725C12.5866 6.64201 12.9485 6.63058 15.9999 6.63058ZM15.9999 4.57153C12.8961 4.57153 12.5066 4.58487 11.2875 4.6401C10.3397 4.65924 9.40198 4.83893 8.51421 5.17153C7.7549 5.46515 7.06531 5.91418 6.48965 6.48984C5.914 7.06549 5.46497 7.75508 5.17135 8.51439C4.83864 9.40246 4.65895 10.3405 4.63992 11.2887C4.58468 12.5077 4.57135 12.8953 4.57135 16.0001C4.57135 19.1049 4.58468 19.4934 4.63992 20.7125C4.65906 21.6603 4.83875 22.598 5.17135 23.4858C5.46497 24.2451 5.914 24.9347 6.48965 25.5104C7.06531 26.086 7.7549 26.5351 8.51421 26.8287C9.40228 27.1614 10.3403 27.3411 11.2885 27.3601C12.5075 27.4153 12.8961 27.4287 15.9999 27.4287C19.1037 27.4287 19.4933 27.4153 20.7123 27.3601C21.6605 27.3411 22.5985 27.1614 23.4866 26.8287C24.2459 26.5351 24.9355 26.086 25.5111 25.5104C26.0868 24.9347 26.5358 24.2451 26.8294 23.4858C27.1618 22.5977 27.3412 21.6596 27.3599 20.7115C27.4152 19.4925 27.4285 19.1049 27.4285 16.0001C27.4285 12.8953 27.4152 12.5068 27.3599 11.2877C27.3408 10.3399 27.1611 9.40216 26.8285 8.51439C26.5349 7.75508 26.0858 7.06549 25.5102 6.48984C24.9345 5.91418 24.2449 5.46515 23.4856 5.17153C22.5975 4.83915 21.6595 4.65978 20.7113 4.64106C19.4923 4.58391 19.1047 4.57153 15.9999 4.57153Z" fill="#26123B"/>
</svg>
