<svg width="81" height="80" viewBox="0 0 81 80" fill="none" xmlns="http://www.w3.org/2000/svg">
<g clip-path="url(#clip0_27_1495)">
<path d="M25.3416 46.7246C11.1363 48.0086 0.313809 60.0118 0.502397 74.2737V74.997C0.502397 77.7583 2.74092 79.9969 5.50224 79.9969C8.26356 79.9969 10.5021 77.7583 10.5021 74.997V74.0738C10.3518 65.317 16.8141 57.8496 25.5016 56.741C34.6721 55.8317 42.8436 62.5286 43.7529 71.6991C43.8067 72.2413 43.8339 72.7857 43.8343 73.3305V74.9972C43.8343 77.7585 46.0729 79.997 48.8342 79.997C51.5955 79.997 53.834 77.7585 53.834 74.9972V73.3305C53.8178 58.5867 41.8524 46.6479 27.1088 46.6641C26.5191 46.6648 25.9297 46.6849 25.3416 46.7246Z" fill="#B1DEC0"/>
<path d="M27.1682 40.0006C38.2135 40.0006 47.1676 31.0465 47.1676 20.0012C47.1676 8.95592 38.2135 0.00183105 27.1682 0.00183105C16.1229 0.00183105 7.16882 8.95592 7.16882 20.0012C7.17992 31.042 16.1274 39.9895 27.1682 40.0006ZM27.1682 10.0015C32.6908 10.0015 37.1679 14.4786 37.1679 20.0012C37.1679 25.5238 32.6908 30.0009 27.1682 30.0009C21.6456 30.0009 17.1685 25.5238 17.1685 20.0012C17.1685 14.4786 21.6456 10.0015 27.1682 10.0015Z" fill="#B1DEC0"/>
<path d="M75.5005 33.3348H70.5007V28.3349C70.5007 25.5736 68.2621 23.3351 65.5008 23.3351C62.7395 23.3351 60.501 25.5736 60.501 28.3349V33.3348H55.5011C52.7398 33.3348 50.5013 35.5733 50.5013 38.3346C50.5013 41.0959 52.7398 43.3344 55.5011 43.3344H60.501V48.3343C60.501 51.0956 62.7395 53.3341 65.5008 53.3341C68.2621 53.3341 70.5007 51.0956 70.5007 48.3343V43.3344H75.5005C78.2618 43.3344 80.5003 41.0959 80.5003 38.3346C80.5003 35.5733 78.2618 33.3348 75.5005 33.3348Z" fill="#B1DEC0"/>
</g>
<defs>
<clipPath id="clip0_27_1495">
<rect width="80" height="80" fill="white" transform="translate(0.5)"/>
</clipPath>
</defs>
</svg>
