<svg width="105" height="104" viewBox="0 0 105 104" fill="none" xmlns="http://www.w3.org/2000/svg">
<g clip-path="url(#clip0_27_1462)">
<path d="M80.8333 13H78.0513C77.0935 9.29004 74.9333 6.00202 71.9085 3.64996C68.8838 1.2979 65.1649 0.0143596 61.3333 0L44 0C40.1684 0.0143596 36.4496 1.2979 33.4248 3.64996C30.4 6.00202 28.2399 9.29004 27.282 13H24.5C18.1811 13.0069 12.123 15.5201 7.65489 19.9882C3.18677 24.4563 0.673554 30.5145 0.666672 36.8333L0.666672 80.1667C0.673554 86.4855 3.18677 92.5437 7.65489 97.0118C12.123 101.48 18.1811 103.993 24.5 104H80.8333C87.1519 103.992 93.2093 101.478 97.6772 97.0105C102.145 92.5426 104.659 86.4852 104.667 80.1667V36.8333C104.659 30.5148 102.145 24.4574 97.6772 19.9895C93.2093 15.5216 87.1519 13.008 80.8333 13ZM24.5 26H80.8333C83.7065 26 86.462 27.1414 88.4937 29.173C90.5253 31.2047 91.6667 33.9602 91.6667 36.8333V47.6667H13.6667V36.8333C13.6667 33.9602 14.808 31.2047 16.8397 29.173C18.8713 27.1414 21.6268 26 24.5 26ZM80.8333 91H24.5C21.6268 91 18.8713 89.8586 16.8397 87.827C14.808 85.7953 13.6667 83.0398 13.6667 80.1667V60.6667H44C44 62.9652 44.9131 65.1696 46.5384 66.7949C48.1637 68.4202 50.3681 69.3333 52.6667 69.3333C54.9652 69.3333 57.1696 68.4202 58.7949 66.7949C60.4202 65.1696 61.3333 62.9652 61.3333 60.6667H91.6667V80.1667C91.6667 83.0398 90.5253 85.7953 88.4937 87.827C86.462 89.8586 83.7065 91 80.8333 91Z" fill="white"/>
</g>
<defs>
<clipPath id="clip0_27_1462">
<rect width="104" height="104" fill="white" transform="translate(0.666672)"/>
</clipPath>
</defs>
</svg>
