<svg width="72" height="72" viewBox="0 0 72 72" fill="none" xmlns="http://www.w3.org/2000/svg">
<g clip-path="url(#clip0_27_1487)">
<path d="M55.5 72H16.5C7.39139 71.99 0.00998437 64.6086 0 55.5V16.5C0.00998437 7.39139 7.39139 0.00998437 16.5 0H55.4999C64.6086 0.00998437 71.99 7.39139 72 16.5V55.4999C71.99 64.6086 64.6086 71.99 55.5 72ZM16.5 9C12.3578 9 9 12.3578 9 16.5V55.4999C9 59.6422 12.3578 63 16.5 63H55.4999C59.6422 63 63 59.6422 63 55.5V16.5C63 12.3578 59.6422 9 55.5 9H16.5Z" fill="#B1DEC0"/>
<path d="M29.0013 53.3608C27.1082 53.3621 25.2933 52.606 23.9613 51.2609L15.0002 42.3149C13.2423 40.558 13.2414 37.7088 14.9983 35.9509C14.999 35.9502 14.9997 35.9495 15.0002 35.9488C16.7575 34.1921 19.606 34.1921 21.3632 35.9488L29.0013 43.5837L50.6373 21.9477C52.3945 20.191 55.243 20.191 57.0003 21.9477C58.7582 23.7045 58.7591 26.5537 57.0023 28.3117C57.0015 28.3124 57.0009 28.3131 57.0003 28.3137L34.0383 51.2758C32.7049 52.6152 30.8913 53.366 29.0013 53.3608Z" fill="#B1DEC0"/>
</g>
<defs>
<clipPath id="clip0_27_1487">
<rect width="72" height="72" fill="white"/>
</clipPath>
</defs>
</svg>
