<svg width="72" height="72" viewBox="0 0 72 72" fill="none" xmlns="http://www.w3.org/2000/svg">
<path d="M68.2564 24.0276C65.1419 20.1681 60.4451 17.9291 55.4856 17.9395H49.3945L49.6635 16.3614C50.7601 9.9326 46.4376 3.83215 40.0088 2.73555C39.3015 2.6149 38.5845 2.55893 37.8671 2.56849C33.3592 2.54501 29.2237 5.06613 27.1794 9.08393L22.6605 17.9395H16.4379C7.36369 17.9495 0.00984375 25.3032 0 34.3776V49.3212C0.00984375 58.3956 7.36369 65.7493 16.4379 65.7592H52.3266C60.0832 65.7311 66.7748 60.308 68.4089 52.7253L71.568 37.7817C72.6045 32.9321 71.3867 27.874 68.2564 24.0276ZM8.96611 49.3211V34.3776C8.96611 30.2511 12.3113 26.9058 16.4379 26.9058H20.9211V56.7929H16.4379C12.3114 56.7929 8.96611 53.4477 8.96611 49.3211ZM62.796 35.9257L59.6339 50.8694C58.8923 54.3155 55.8515 56.7806 52.3264 56.7931H29.8872V23.5015L35.1652 13.1576C35.7247 12.1105 36.8367 11.4789 38.0225 11.5347C39.5938 11.5357 40.8669 12.8105 40.8659 14.3818C40.8658 14.5405 40.8524 14.6988 40.826 14.8552L38.7727 26.9058H55.4856C59.6121 26.9053 62.9577 30.2502 62.9581 34.3767C62.9582 34.8973 62.9038 35.4164 62.796 35.9257Z" fill="#B1DEC0"/>
</svg>
