<svg width="104" height="104" viewBox="0 0 104 104" fill="none" xmlns="http://www.w3.org/2000/svg">
<g clip-path="url(#clip0_27_1478)">
<path d="M67.1667 30.3334C70.135 30.4318 72.943 31.704 74.9741 33.8708C77.0052 36.0376 78.0935 38.9219 78 41.8904C78 47.6667 73.151 47.6667 67.1667 47.6667C61.1824 47.6667 56.3334 47.6667 56.3334 41.8904C56.2399 38.9219 57.3282 36.0376 59.3593 33.8708C61.3904 31.704 64.1984 30.4318 67.1667 30.3334ZM104 52C104 41.7154 100.95 31.6617 95.2364 23.1104C89.5226 14.559 81.4013 7.89404 71.8996 3.95829C62.3978 0.0225309 51.9423 -1.00724 41.8553 0.999189C31.7683 3.00562 22.5028 7.95814 15.2305 15.2305C7.95814 22.5028 3.00562 31.7683 0.999189 41.8553C-1.00724 51.9423 0.0225309 62.3978 3.95829 71.8996C7.89404 81.4013 14.559 89.5226 23.1104 95.2364C31.6617 100.95 41.7154 104 52 104C65.7867 103.985 79.0045 98.5018 88.7531 88.7531C98.5018 79.0045 103.985 65.7867 104 52ZM91 52C91 59.7135 88.7127 67.2537 84.4273 73.6673C80.142 80.0808 74.051 85.0795 66.9247 88.0313C59.7984 90.9832 51.9568 91.7555 44.3915 90.2507C36.8262 88.7458 29.8771 85.0314 24.4229 79.5772C18.9686 74.1229 15.2542 67.1738 13.7494 59.6085C12.2446 52.0433 13.0169 44.2017 15.9687 37.0754C18.9205 29.9491 23.9193 23.8581 30.3328 19.5727C36.7463 15.2873 44.2866 13 52 13C62.34 13.0115 72.2531 17.1241 79.5645 24.4355C86.876 31.747 90.9886 41.6601 91 52ZM76.0804 67.444C77.2732 66.2252 77.9393 64.5864 77.9349 62.881C77.9305 61.1756 77.2561 59.5402 76.057 58.3275C74.858 57.1148 73.2303 56.4219 71.5251 56.3982C69.8198 56.3746 68.1736 57.022 66.9414 58.201C62.8596 62.0718 57.5998 64.4653 52 65C46.4104 64.4672 41.159 62.0818 37.0804 58.2227C35.8507 57.0421 34.2064 56.3918 32.5018 56.412C30.7972 56.4321 29.1688 57.1211 27.9674 58.3305C26.7659 59.5399 26.0877 61.1728 26.0788 62.8775C26.0699 64.5822 26.731 66.2221 27.9197 67.444C34.444 73.702 42.9768 77.4425 52 78C61.0232 77.4425 69.556 73.702 76.0804 67.444ZM47.6667 41.1667C47.6667 39.4428 46.9819 37.7895 45.7629 36.5705C44.5439 35.3515 42.8906 34.6667 41.1667 34.6667H32.5C30.7761 34.6667 29.1228 35.3515 27.9038 36.5705C26.6848 37.7895 26 39.4428 26 41.1667C26 42.8906 26.6848 44.5439 27.9038 45.7629C29.1228 46.9819 30.7761 47.6667 32.5 47.6667H41.1667C42.8906 47.6667 44.5439 46.9819 45.7629 45.7629C46.9819 44.5439 47.6667 42.8906 47.6667 41.1667Z" fill="white"/>
</g>
<defs>
<clipPath id="clip0_27_1478">
<rect width="104" height="104" fill="white"/>
</clipPath>
</defs>
</svg>
