<svg width="105" height="104" viewBox="0 0 105 104" fill="none" xmlns="http://www.w3.org/2000/svg">
<g clip-path="url(#clip0_24_1432)">
<path d="M30.0254 101.562C26.7182 101.547 23.5006 100.485 20.8344 98.5285C18.1096 96.6117 16.0764 93.8666 15.0372 90.7014C13.998 87.5362 14.0084 84.1201 15.0667 80.9612L20.1367 65.2789L6.79002 55.5202C4.11394 53.565 2.12483 50.8135 1.10729 47.6593C0.0897568 44.5051 0.0959271 41.1099 1.12492 37.9595C2.15392 34.809 4.15301 32.0647 6.83618 30.1193C9.51935 28.1738 12.7491 27.1269 16.0634 27.1282H32.4L37.3617 11.6582C38.38 8.49027 40.3774 5.72726 43.0664 3.76712C45.7554 1.80698 48.9971 0.750854 52.3247 0.750854C55.6523 0.750854 58.894 1.80698 61.583 3.76712C64.2719 5.72726 66.2694 8.49027 67.2877 11.6582L72.2667 27.1282H88.6034C91.9172 27.1278 95.1464 28.1754 97.8288 30.1212C100.511 32.067 102.51 34.8113 103.538 37.9615C104.567 41.1118 104.572 44.5066 103.555 47.6603C102.537 50.8141 100.548 53.5652 97.8724 55.5202L84.53 65.2789L89.6 80.9612C90.6222 84.1246 90.6147 87.5307 89.5787 90.6895C88.5426 93.8484 86.5313 96.5973 83.8341 98.5407C81.1368 100.484 77.8927 101.522 74.5683 101.505C71.2439 101.488 68.0106 100.417 65.3334 98.4462L52.3334 88.8869L39.3334 98.4505C36.6435 100.457 33.381 101.547 30.0254 101.562ZM16.0634 40.1282C15.4914 40.1281 14.934 40.3089 14.4709 40.6446C14.0078 40.9803 13.6627 41.4538 13.4849 41.9974C13.307 42.5411 13.3056 43.127 13.4807 43.6715C13.6558 44.216 13.9986 44.6912 14.46 45.0292L31.6027 57.5569C32.7065 58.364 33.5277 59.4987 33.9494 60.7995C34.3711 62.1003 34.3718 63.501 33.9514 64.8022L27.4514 84.9522C27.271 85.4988 27.2691 86.0886 27.4461 86.6363C27.623 87.1839 27.9696 87.6612 28.4357 87.9989C28.9017 88.3366 29.4631 88.5173 30.0387 88.5149C30.6142 88.5125 31.1741 88.3271 31.6374 87.9855L48.4897 75.5879C49.6061 74.7664 50.9559 74.3233 52.342 74.3233C53.7281 74.3233 55.0779 74.7664 56.1944 75.5879L73.0467 87.9812C73.5093 88.326 74.07 88.514 74.647 88.5179C75.2239 88.5218 75.7871 88.3413 76.2543 88.0027C76.7215 87.6641 77.0684 87.1852 77.2444 86.6357C77.4204 86.0862 77.4163 85.4949 77.2327 84.9479L70.7327 64.7979C70.3123 63.4967 70.313 62.096 70.7346 60.7952C71.1563 59.4944 71.9775 58.3597 73.0814 57.5525L90.2197 45.0249C90.6808 44.6871 91.0234 44.2123 91.1987 43.6682C91.3739 43.1241 91.3728 42.5386 91.1955 41.9952C91.0182 41.4517 90.6738 40.9782 90.2114 40.6422C89.749 40.3061 89.1923 40.1247 88.6207 40.1239H67.5C66.1233 40.1235 64.7823 39.6861 63.6702 38.8746C62.5581 38.0631 61.7324 36.9195 61.312 35.6085L54.9334 15.6275C54.7577 15.0807 54.4129 14.6037 53.9488 14.2653C53.4847 13.9269 52.9251 13.7446 52.3507 13.7446C51.7763 13.7446 51.2167 13.9269 50.7526 14.2653C50.2884 14.6037 49.9437 15.0807 49.768 15.6275L43.3417 35.6129C42.922 36.9217 42.0983 38.0638 40.9888 38.8751C39.8793 39.6864 38.5412 40.1251 37.1667 40.1282H16.0634Z" fill="white"/>
</g>
<defs>
<clipPath id="clip0_24_1432">
<rect width="104" height="104" fill="white" transform="translate(0.333252)"/>
</clipPath>
</defs>
</svg>
