<svg width="195" height="203" viewBox="0 0 195 203" fill="none" xmlns="http://www.w3.org/2000/svg">
<path d="M161.008 202.801H67.9298V192.291H161.008V202.801Z" fill="#7E6392"/>
<path d="M97.3064 127.196C88.7026 127.196 80.3623 125.516 72.513 122.202C64.9272 119 58.1137 114.411 52.2619 108.569C46.4102 102.727 41.8142 95.9246 38.6069 88.3511C35.2872 80.5147 33.6043 72.1854 33.6043 63.5982C33.6043 55.011 35.2872 46.6818 38.6069 38.8453C41.8142 31.2718 46.4102 24.4695 52.2619 18.6272C58.1137 12.785 64.9272 8.19905 72.513 4.9945C80.3597 1.68016 88.7026 0 97.3064 0C105.91 0 114.25 1.68016 122.1 4.9945C129.686 8.1965 136.499 12.785 142.351 18.6272C148.203 24.4695 152.799 31.2718 156.006 38.8453C159.326 46.6818 161.008 55.011 161.008 63.5982C161.008 72.1854 159.326 80.5147 156.006 88.3511C152.799 95.9246 148.203 102.727 142.351 108.569C136.499 114.411 129.686 118.997 122.1 122.202C114.25 125.516 105.908 127.196 97.3064 127.196ZM97.3064 10.4716C90.1195 10.4716 83.1501 11.876 76.5949 14.6439C70.2598 17.3199 64.5666 21.15 59.679 26.0322C54.7889 30.9143 50.9525 36.5957 48.2721 42.9206C45.4997 49.465 44.093 56.4231 44.093 63.5982C44.093 70.7733 45.4997 77.7289 48.2721 84.2759C50.9525 90.6007 54.7889 96.2846 59.679 101.164C64.5691 106.046 70.2598 109.877 76.5949 112.553C83.1501 115.32 90.1169 116.725 97.3064 116.725C104.496 116.725 111.463 115.32 118.018 112.553C124.353 109.877 130.046 106.046 134.934 101.164C139.824 96.2821 143.66 90.6007 146.341 84.2759C149.113 77.7314 150.52 70.7733 150.52 63.5982C150.52 56.4231 149.113 49.465 146.341 42.9206C143.66 36.5957 139.824 30.9118 134.934 26.0322C130.044 21.15 124.353 17.3199 118.018 14.6439C111.463 11.876 104.496 10.4716 97.3064 10.4716Z" fill="#7E6392"/>
<path d="M92.4776 63.8331H83.4979C72.3621 63.8331 61.7864 59.6098 53.7223 51.9418L51.6353 49.9578H77.884L92.4751 63.8331H92.4776Z" fill="#7E6392"/>
<path d="M111.115 63.8331H102.135L116.726 49.9578H142.975L140.888 51.9418C132.824 59.6098 122.251 63.8331 111.112 63.8331H111.115Z" fill="#7E6392"/>
<path d="M97.3064 61.1954L91.0402 55.2383V47.0929L88.5977 44.7258H23.113L0 22.3757H15.1128L27.3689 34.2517H92.851L97.3064 38.5695L101.762 34.2517H167.244L179.5 22.3757H194.562L171.5 44.7233H106.018L103.575 47.0903V55.2357L97.3089 61.1929L97.3064 61.1954Z" fill="#7E6392"/>
<path d="M44.093 179.465L33.6043 170.467V62.4492H44.093V179.465Z" fill="#7E6392"/>
<path d="M161.008 202.801H150.52V62.4492H161.008V202.803V202.801Z" fill="#7E6392"/>
<path d="M149.543 202.763L50.8195 107.104L58.2339 99.7011L156.957 195.36L149.543 202.763Z" fill="#7E6392"/>
<path d="M82.0349 202.801H66.9732L33.6017 170.464V155.871L82.0324 202.801H82.0349Z" fill="#7E6392"/>
</svg>
