<svg width="280" height="113" viewBox="0 0 280 113" fill="none" xmlns="http://www.w3.org/2000/svg">
<path d="M91.0755 112.892H38.4249V107.041H91.0755V112.892Z" fill="#7E6392"/>
<path d="M55.042 70.8057C50.1752 70.8057 45.4574 69.8704 41.0175 68.0254C36.7265 66.243 32.8724 63.6887 29.5623 60.4366C26.2522 57.1844 23.6525 53.3978 21.8383 49.1819C19.9604 44.8196 19.0085 40.183 19.0085 35.4029C19.0085 30.6227 19.9604 25.9861 21.8383 21.6238C23.6525 17.4079 26.2522 13.6213 29.5623 10.3691C32.8724 7.11696 36.7265 4.56412 41.0175 2.78026C45.456 0.935282 50.1752 0 55.042 0C59.9088 0 64.6265 0.935282 69.0665 2.78026C73.3575 4.5627 77.2116 7.11696 80.5217 10.3691C83.8317 13.6213 86.4315 17.4079 88.2457 21.6238C90.1235 25.9861 91.0755 30.6227 91.0755 35.4029C91.0755 40.183 90.1235 44.8196 88.2457 49.1819C86.4315 53.3978 83.8317 57.1844 80.5217 60.4366C77.2116 63.6887 73.3575 66.2416 69.0665 68.0254C64.6265 69.8704 59.9073 70.8057 55.042 70.8057ZM55.042 5.82917C50.9767 5.82917 47.0344 6.61094 43.3264 8.15174C39.7429 9.64137 36.5225 11.7735 33.7578 14.4912C30.9917 17.2089 28.8216 20.3715 27.3054 23.8923C25.7372 27.5354 24.9415 31.4087 24.9415 35.4029C24.9415 39.397 25.7372 43.2689 27.3054 46.9134C28.8216 50.4342 30.9917 53.5982 33.7578 56.3145C36.5239 59.0322 39.7429 61.1643 43.3264 62.654C47.0344 64.1948 50.9752 64.9765 55.042 64.9765C59.1087 64.9765 63.0496 64.1948 66.7575 62.654C70.3411 61.1643 73.5615 59.0322 76.3262 56.3145C79.0923 53.5968 81.2624 50.4342 82.7785 46.9134C84.3468 43.2703 85.1425 39.397 85.1425 35.4029C85.1425 31.4087 84.3468 27.5354 82.7785 23.8923C81.2624 20.3715 79.0923 17.2075 76.3262 14.4912C73.56 11.7735 70.3411 9.64137 66.7575 8.15174C63.0496 6.61094 59.1087 5.82917 55.042 5.82917Z" fill="#7E6392"/>
<path d="M52.3106 35.5336H47.2311C40.9321 35.5336 34.9499 33.1826 30.3884 28.9142L29.2079 27.8097H44.0556L52.3091 35.5336H52.3106Z" fill="#7E6392"/>
<path d="M62.8528 35.5336H57.7734L66.0269 27.8097H80.8746L79.6941 28.9142C75.1326 33.1826 69.1519 35.5336 62.8514 35.5336H62.8528Z" fill="#7E6392"/>
<path d="M55.042 34.0653L51.4975 30.7492V26.2149L50.1159 24.8973H13.074L0 12.4557H8.54868L15.4814 19.0667H52.5218L55.042 21.4703L57.5622 19.0667H94.6026L101.535 12.4557H110.055L97.0099 24.8958H59.9695L58.5879 26.2135V30.7478L55.0434 34.0639L55.042 34.0653Z" fill="#7E6392"/>
<path d="M24.9415 99.9018L19.0085 94.8928V34.7632H24.9415V99.9018Z" fill="#7E6392"/>
<path d="M91.0755 112.892H85.1425V34.7632H91.0755V112.893V112.892Z" fill="#7E6392"/>
<path d="M84.5898 112.871L28.7464 59.6207L32.9404 55.5L88.7839 108.75L84.5898 112.871Z" fill="#7E6392"/>
<path d="M46.4036 112.892H37.8839L19.007 94.8913V86.768L46.4022 112.892H46.4036Z" fill="#7E6392"/>
<path d="M111.494 58.9271C109.177 57.6507 107.341 55.8811 105.985 53.6182C104.63 51.3553 103.951 48.7954 103.951 45.9355C103.951 43.0756 104.63 40.5569 105.985 38.2941C107.341 36.0326 109.178 34.263 111.494 32.9851C113.811 31.7087 116.354 31.0691 119.123 31.0691C121.892 31.0691 124.47 31.7073 126.773 32.9851C129.076 34.263 130.898 36.0326 132.24 38.2941C133.582 40.5569 134.253 43.1041 134.253 45.9355C134.253 48.7669 133.582 51.3553 132.24 53.6182C130.898 55.8811 129.068 57.6507 126.752 58.9271C124.434 60.205 121.892 60.8432 119.123 60.8432C116.354 60.8432 113.811 60.205 111.494 58.9271ZM123.828 54.4511C125.183 53.6594 126.244 52.5294 127.006 51.0568C127.769 49.5857 128.151 47.8786 128.151 45.9355C128.151 43.9925 127.769 42.2925 127.006 40.8341C126.244 39.3772 125.183 38.2599 123.828 37.4824C122.472 36.7049 120.904 36.3169 119.123 36.3169C117.342 36.3169 115.768 36.7063 114.398 37.4824C113.028 38.2599 111.962 39.3772 111.198 40.8341C110.435 42.291 110.054 43.9925 110.054 45.9355C110.054 47.8786 110.435 49.5857 111.198 51.0568C111.96 52.528 113.027 53.6594 114.398 54.4511C115.768 55.2428 117.344 55.638 119.123 55.638C120.903 55.638 122.471 55.2428 123.828 54.4511Z" fill="#7E6392"/>
<path d="M144.594 29.7372V60.5504H138.661V29.7372H144.594Z" fill="#7E6392"/>
<path d="M150.845 33.7555C150.152 33.1031 149.807 32.2915 149.807 31.3192C149.807 30.347 150.152 29.5354 150.845 28.883C151.537 28.2305 152.406 27.905 153.452 27.905C154.498 27.905 155.366 28.232 156.059 28.883C156.751 29.5354 157.098 30.347 157.098 31.3192C157.098 32.2915 156.752 33.1031 156.059 33.7555C155.366 34.4079 154.498 34.7334 153.452 34.7334C152.406 34.7334 151.538 34.4079 150.845 33.7555ZM156.376 37.4824V60.5504H150.443V37.4824H156.376Z" fill="#7E6392"/>
<path d="M172.015 55.1789L177.948 37.4824H184.263L175.576 60.5504H168.371L159.725 37.4824H166.082L172.015 55.1789Z" fill="#7E6392"/>
<path d="M209.268 50.7654H192.104C192.245 52.4313 192.839 53.7362 193.884 54.68C194.928 55.6238 196.215 56.0957 197.741 56.0957C199.944 56.0957 201.512 55.1661 202.446 53.3055H208.844C208.166 55.5271 206.867 57.3522 204.945 58.7807C203.024 60.2106 200.665 60.9256 197.868 60.9256C195.607 60.9256 193.58 60.4324 191.786 59.4474C189.992 58.4623 188.593 57.0679 187.591 55.2627C186.588 53.459 186.086 51.3766 186.086 49.0171C186.086 46.6576 186.579 44.534 187.569 42.7302C188.557 40.9265 189.943 39.5378 191.722 38.567C193.502 37.5961 195.55 37.11 197.868 37.11C200.186 37.11 202.098 37.5819 203.865 38.5257C205.63 39.4696 207.001 40.8099 207.976 42.544C208.951 44.2796 209.439 46.271 209.439 48.5196C209.439 49.3526 209.383 50.1016 209.27 50.7683L209.268 50.7654ZM203.292 46.8509C203.263 45.3513 202.712 44.1516 201.64 43.2491C200.566 42.3479 199.251 41.8959 197.699 41.8959C196.229 41.8959 194.993 42.3337 193.991 43.2078C192.988 44.082 192.373 45.2973 192.148 46.8509H203.293H203.292Z" fill="#7E6392"/>
<path d="M214.163 33.7555C213.47 33.1031 213.124 32.2915 213.124 31.3192C213.124 30.347 213.47 29.5354 214.163 28.883C214.854 28.2305 215.724 27.905 216.77 27.905C217.816 27.905 218.684 28.232 219.377 28.883C220.068 29.5354 220.415 30.347 220.415 31.3192C220.415 32.2915 220.07 33.1031 219.377 33.7555C218.684 34.4079 217.816 34.7334 216.77 34.7334C215.724 34.7334 214.856 34.4079 214.163 33.7555ZM219.693 37.4824V60.5504H213.76V37.4824H219.693Z" fill="#7E6392"/>
<path d="M234.463 38.1903C235.693 37.4966 237.097 37.1498 238.68 37.1498V43.2704H237.112C235.247 43.2704 233.841 43.7011 232.895 44.561C231.947 45.4224 231.475 46.9205 231.475 49.0583V60.5504H225.542V37.4824H231.475V41.0629C232.238 39.842 233.235 38.8839 234.463 38.1903Z" fill="#7E6392"/>
<path d="M242.557 42.7288C243.503 40.9251 244.79 39.5364 246.414 38.5655C248.039 37.5947 249.853 37.1086 251.86 37.1086C253.612 37.1086 255.144 37.4554 256.457 38.1491C257.771 38.8427 258.823 39.7183 259.614 40.773V37.4839H265.591V60.5518H259.614V57.1788C258.852 58.2619 257.799 59.156 256.457 59.8652C255.115 60.5731 253.568 60.927 251.816 60.927C249.839 60.927 248.038 60.4267 246.413 59.4275C244.788 58.4282 243.502 57.0196 242.556 55.2016C241.608 53.3836 241.137 51.2942 241.137 48.9347C241.137 46.5751 241.61 44.5354 242.556 42.7302L242.557 42.7288ZM258.768 45.3726C258.202 44.3592 257.44 43.5817 256.479 43.0415C255.519 42.5 254.487 42.2299 253.385 42.2299C252.282 42.2299 251.265 42.4943 250.333 43.0216C249.402 43.549 248.645 44.3194 248.066 45.3328C247.486 46.3463 247.197 47.5474 247.197 48.9347C247.197 50.322 247.486 51.5372 248.066 52.5777C248.645 53.6182 249.408 54.417 250.355 54.9714C251.301 55.5271 252.311 55.8043 253.386 55.8043C254.461 55.8043 255.519 55.5342 256.481 54.9927C257.441 54.4511 258.204 53.675 258.769 52.6616C259.334 51.6481 259.617 50.4342 259.617 49.0185C259.617 47.6028 259.335 46.3889 258.769 45.3755L258.768 45.3726Z" fill="#7E6392"/>
<path d="M128.151 96.5445L124.93 93.4217C122.189 95.8367 118.841 97.0448 114.886 97.0448C112.71 97.0448 110.796 96.6767 109.144 95.9418C107.491 95.207 106.212 94.1651 105.308 92.819C104.404 91.473 103.953 89.9108 103.953 88.1341C103.953 86.218 104.504 84.4981 105.605 82.9701C106.707 81.4435 108.33 80.2083 110.479 79.2645C109.716 78.3492 109.165 77.4679 108.827 76.6207C108.488 75.7736 108.317 74.8653 108.317 73.8931C108.317 72.5612 108.67 71.3601 109.376 70.2912C110.082 69.2223 111.092 68.3823 112.407 67.7725C113.721 67.1627 115.253 66.8557 117.005 66.8557C118.757 66.8557 120.311 67.1883 121.582 67.8549C122.854 68.5216 123.8 69.41 124.422 70.5201C125.043 71.6302 125.312 72.8668 125.228 74.2257H119.464C119.492 73.3089 119.266 72.6095 118.786 72.1234C118.306 71.6387 117.656 71.3942 116.836 71.3942C116.015 71.3942 115.388 71.6231 114.865 72.0808C114.342 72.5385 114.081 73.1283 114.081 73.8504C114.081 74.5725 114.292 75.232 114.716 75.9114C115.14 76.5923 115.832 77.4309 116.792 78.4302L124.252 85.6751C124.308 85.6196 124.35 85.5642 124.379 85.5088C124.406 85.4533 124.435 85.3979 124.464 85.3424L126.88 81.3867H133.068L130.101 86.508C129.535 87.5911 128.927 88.6173 128.278 89.5896L135.441 96.5431H128.151V96.5445ZM121.201 89.8L113.91 82.7214C111.169 83.9154 109.799 85.6082 109.799 87.8015C109.799 89.0509 110.279 90.0985 111.24 90.9456C112.2 91.7928 113.472 92.2149 115.055 92.2149C117.371 92.2149 119.42 91.4104 121.201 89.8Z" fill="#7E6392"/>
<path d="M173.753 96.5445H167.82L154.385 76.5994V96.5445H148.452V67.4385H154.385L167.82 87.4248V67.4385H173.753V96.5445Z" fill="#7E6392"/>
<path d="M201.766 73.4766V96.5445H195.789V93.6292C195.027 94.6285 194.03 95.4131 192.802 95.9816C191.573 96.5502 190.238 96.8359 188.797 96.8359C186.96 96.8359 185.335 96.455 183.923 95.6902C182.51 94.927 181.402 93.8026 180.596 92.3173C179.79 90.8319 179.388 89.0623 179.388 87.0083V73.4752H185.321V86.1754C185.321 88.0076 185.787 89.4162 186.72 90.4012C187.651 91.3862 188.923 91.8795 190.535 91.8795C192.146 91.8795 193.459 91.3862 194.392 90.4012C195.323 89.4162 195.791 88.0076 195.791 86.1754V73.4752H201.767L201.766 73.4766Z" fill="#7E6392"/>
<path d="M227.406 75.7466C229.129 77.4821 229.991 79.9042 229.991 83.0128V96.5459H224.058V83.8045C224.058 81.9723 223.592 80.5637 222.659 79.5787C221.727 78.5936 220.456 78.1004 218.844 78.1004C217.232 78.1004 215.913 78.5936 214.967 79.5787C214.019 80.5637 213.548 81.9723 213.548 83.8045V96.5459H207.615V73.478H213.548V76.3507C214.339 75.3514 215.349 74.5668 216.579 73.9982C217.808 73.4297 219.157 73.144 220.626 73.144C223.423 73.144 225.684 74.0125 227.407 75.7466H227.406Z" fill="#7E6392"/>
<path d="M257.285 86.7596H240.121C240.261 88.4255 240.856 89.7303 241.901 90.6741C242.945 91.6179 244.231 92.0898 245.757 92.0898C247.961 92.0898 249.529 91.1602 250.462 89.2996H256.861C256.183 91.5213 254.883 93.3464 252.962 94.7749C251.041 96.2048 248.681 96.9198 245.885 96.9198C243.624 96.9198 241.597 96.4265 239.803 95.4415C238.009 94.4565 236.61 93.0621 235.607 91.2569C234.605 89.4531 234.103 87.3708 234.103 85.0113C234.103 82.6517 234.596 80.5282 235.586 78.7244C236.574 76.9206 237.96 75.5319 239.739 74.5611C241.519 73.5903 243.567 73.1042 245.885 73.1042C248.202 73.1042 250.115 73.5761 251.881 74.5199C253.646 75.4637 255.018 76.8041 255.993 78.5382C256.968 80.2737 257.456 82.2651 257.456 84.5138C257.456 85.3467 257.399 86.0958 257.286 86.7624L257.285 86.7596ZM251.309 82.8465C251.28 81.3469 250.728 80.1472 249.656 79.2446C248.583 78.3435 247.268 77.8915 245.716 77.8915C244.246 77.8915 243.01 78.3292 242.008 79.2034C241.005 80.0776 240.39 81.2929 240.164 82.8465H251.31H251.309Z" fill="#7E6392"/>
<path d="M265.591 95.8992C264.064 95.2198 262.858 94.2959 261.967 93.1303C261.077 91.9648 260.589 90.6741 260.504 89.2584H266.48C266.593 90.1468 267.037 90.8831 267.816 91.4658C268.593 92.0486 269.56 92.34 270.719 92.34C271.878 92.34 272.732 92.1183 273.368 91.6734C274.003 91.2299 274.322 90.6599 274.322 89.9663C274.322 89.2172 273.932 88.6543 273.156 88.2805C272.379 87.9052 271.143 87.4959 269.448 87.0524C267.696 86.6359 266.262 86.2067 265.146 85.7618C264.03 85.3183 263.07 84.6374 262.265 83.722C261.459 82.8067 261.057 81.5715 261.057 80.0164C261.057 78.74 261.431 77.5745 262.179 76.5184C262.927 75.4637 264.002 74.6308 265.4 74.0196C266.799 73.4098 268.444 73.1042 270.337 73.1042C273.134 73.1042 275.366 73.7907 277.034 75.1652C278.701 76.5397 279.619 78.3918 279.789 80.7243H274.11C274.025 79.8075 273.637 79.0797 272.944 78.5382C272.251 77.9966 271.327 77.7266 270.168 77.7266C269.095 77.7266 268.267 77.9213 267.688 78.3093C267.108 78.6988 266.819 79.2404 266.819 79.934C266.819 80.7115 267.214 81.3014 268.005 81.7037C268.797 82.1059 270.025 82.5153 271.693 82.9317C273.388 83.3482 274.787 83.7789 275.888 84.2224C276.991 84.6673 277.944 85.3538 278.749 86.2834C279.554 87.2144 279.97 88.4425 279.999 89.9691C279.999 91.301 279.624 92.4949 278.876 93.5496C278.126 94.6043 277.053 95.4301 275.655 96.0271C274.256 96.6241 272.625 96.9226 270.76 96.9226C268.895 96.9226 267.115 96.5829 265.589 95.902L265.591 95.8992Z" fill="#7E6392"/>
<path d="M105.92 110.898L105.194 112.875H103.948L107.219 104.037H108.582L111.84 112.875H110.595L109.868 110.898H105.92ZM109.53 109.954L107.894 105.465L106.257 109.954H109.53Z" fill="#7E6392"/>
<path d="M130.594 104.553C131.316 104.914 131.87 105.431 132.256 106.102C132.641 106.774 132.834 107.565 132.834 108.474C132.834 109.384 132.641 110.173 132.256 110.839C131.872 111.508 131.317 112.018 130.594 112.37C129.871 112.723 129.017 112.899 128.03 112.899H125.214V104.01H128.03C129.017 104.01 129.872 104.19 130.594 104.551V104.553ZM130.704 111.031C131.319 110.423 131.626 109.572 131.626 108.474C131.626 107.377 131.316 106.506 130.697 105.884C130.078 105.263 129.189 104.953 128.029 104.953H126.393V111.942H128.029C129.198 111.942 130.089 111.638 130.703 111.03L130.704 111.031Z" fill="#7E6392"/>
<path d="M154.249 104.011L150.835 112.901H149.472L146.058 104.011H147.317L150.16 111.677L153.002 104.011H154.249Z" fill="#7E6392"/>
<path d="M168.986 112.416C168.293 112.029 167.746 111.489 167.344 110.795C166.942 110.103 166.74 109.323 166.74 108.454C166.74 107.586 166.942 106.807 167.344 106.115C167.746 105.423 168.293 104.882 168.986 104.494C169.679 104.108 170.444 103.914 171.283 103.914C172.122 103.914 172.902 104.108 173.594 104.494C174.287 104.881 174.83 105.42 175.23 106.108C175.628 106.797 175.827 107.579 175.827 108.454C175.827 109.33 175.628 110.113 175.23 110.801C174.832 111.49 174.287 112.028 173.594 112.414C172.901 112.801 172.131 112.994 171.283 112.994C170.435 112.994 169.677 112.801 168.986 112.414V112.416ZM172.99 111.554C173.497 111.266 173.894 110.852 174.185 110.318C174.475 109.782 174.621 109.162 174.621 108.456C174.621 107.749 174.476 107.118 174.185 106.587C173.896 106.055 173.5 105.646 172.998 105.356C172.495 105.067 171.924 104.922 171.285 104.922C170.645 104.922 170.072 105.067 169.572 105.356C169.07 105.644 168.673 106.055 168.384 106.587C168.095 107.118 167.948 107.741 167.948 108.456C167.948 109.171 168.093 109.782 168.384 110.318C168.673 110.854 169.073 111.266 169.579 111.554C170.085 111.843 170.654 111.988 171.286 111.988C171.918 111.988 172.487 111.843 172.993 111.554H172.99Z" fill="#7E6392"/>
<path d="M195.216 106.599C194.965 106.081 194.601 105.68 194.125 105.394C193.649 105.11 193.095 104.966 192.463 104.966C191.831 104.966 191.262 105.108 190.756 105.394C190.25 105.68 189.852 106.088 189.561 106.618C189.272 107.15 189.126 107.764 189.126 108.461C189.126 109.159 189.27 109.771 189.561 110.298C189.85 110.825 190.25 111.232 190.756 111.516C191.262 111.8 191.831 111.944 192.463 111.944C193.346 111.944 194.073 111.685 194.643 111.166C195.215 110.648 195.548 109.947 195.643 109.061H192.035V108.118H196.903V109.01C196.834 109.742 196.601 110.412 196.201 111.019C195.804 111.627 195.28 112.107 194.63 112.46C193.981 112.812 193.259 112.989 192.463 112.989C191.624 112.989 190.857 112.795 190.166 112.409C189.473 112.022 188.926 111.483 188.524 110.795C188.122 110.106 187.92 109.329 187.92 108.461C187.92 107.594 188.122 106.814 188.524 106.122C188.926 105.43 189.473 104.89 190.166 104.501C190.859 104.115 191.624 103.922 192.463 103.922C193.424 103.922 194.274 104.156 195.014 104.624C195.753 105.091 196.293 105.751 196.63 106.601H195.215L195.216 106.599Z" fill="#7E6392"/>
<path d="M211.569 110.898L210.842 112.875H209.597L212.868 104.037H214.231L217.489 112.875H216.243L215.517 110.898H211.569ZM215.178 109.954L213.542 105.465L211.906 109.954H215.178Z" fill="#7E6392"/>
<path d="M236.242 104.553C236.964 104.914 237.518 105.431 237.905 106.102C238.29 106.774 238.482 107.565 238.482 108.474C238.482 109.384 238.29 110.173 237.905 110.839C237.52 111.508 236.966 112.018 236.242 112.37C235.519 112.723 234.665 112.899 233.679 112.899H230.862V104.01H233.679C234.665 104.01 235.52 104.19 236.242 104.551V104.553ZM236.352 111.031C236.967 110.423 237.274 109.572 237.274 108.474C237.274 107.377 236.964 106.506 236.345 105.884C235.726 105.263 234.838 104.953 233.677 104.953H232.041V111.942H233.677C234.846 111.942 235.737 111.638 236.351 111.03L236.352 111.031Z" fill="#7E6392"/>
<path d="M253.503 112.416C252.81 112.029 252.263 111.489 251.861 110.795C251.459 110.103 251.258 109.323 251.258 108.454C251.258 107.586 251.459 106.807 251.861 106.115C252.263 105.423 252.81 104.882 253.503 104.494C254.196 104.108 254.962 103.914 255.801 103.914C256.64 103.914 257.42 104.108 258.111 104.494C258.804 104.881 259.348 105.42 259.747 106.108C260.145 106.797 260.345 107.579 260.345 108.454C260.345 109.33 260.145 110.113 259.747 110.801C259.349 111.49 258.804 112.028 258.111 112.414C257.418 112.801 256.648 112.994 255.801 112.994C254.953 112.994 254.195 112.801 253.503 112.414V112.416ZM257.508 111.554C258.014 111.266 258.412 110.852 258.703 110.318C258.992 109.782 259.138 109.162 259.138 108.456C259.138 107.749 258.994 107.118 258.703 106.587C258.413 106.055 258.017 105.646 257.515 105.356C257.013 105.067 256.442 104.922 255.802 104.922C255.163 104.922 254.59 105.067 254.089 105.356C253.587 105.644 253.191 106.055 252.901 106.587C252.612 107.118 252.466 107.741 252.466 108.456C252.466 109.171 252.611 109.782 252.901 110.318C253.191 110.854 253.59 111.266 254.096 111.554C254.603 111.843 255.171 111.988 255.804 111.988C256.436 111.988 257.004 111.843 257.511 111.554H257.508Z" fill="#7E6392"/>
<path d="M275.386 112.69C274.915 112.483 274.544 112.193 274.277 111.823C274.008 111.454 273.87 111.026 273.862 110.541H275.12C275.164 110.957 275.339 111.309 275.645 111.593C275.952 111.877 276.401 112.021 276.989 112.021C277.578 112.021 277.995 111.883 278.32 111.606C278.644 111.33 278.806 110.975 278.806 110.541C278.806 110.201 278.711 109.924 278.521 109.712C278.33 109.501 278.093 109.338 277.807 109.228C277.522 109.117 277.135 108.997 276.651 108.871C276.053 108.717 275.576 108.565 275.216 108.412C274.857 108.258 274.549 108.018 274.294 107.691C274.038 107.364 273.911 106.924 273.911 106.371C273.911 105.886 274.037 105.457 274.287 105.083C274.537 104.709 274.89 104.419 275.344 104.216C275.799 104.011 276.32 103.91 276.908 103.91C277.756 103.91 278.451 104.119 278.992 104.536C279.533 104.952 279.838 105.505 279.907 106.193H278.61C278.566 105.853 278.384 105.553 278.064 105.293C277.745 105.034 277.319 104.904 276.793 104.904C276.299 104.904 275.897 105.029 275.586 105.28C275.275 105.532 275.119 105.882 275.119 106.332C275.119 106.655 275.211 106.919 275.398 107.123C275.585 107.327 275.813 107.482 276.087 107.587C276.359 107.694 276.742 107.815 277.235 107.951C277.833 108.113 278.313 108.272 278.676 108.429C279.039 108.587 279.352 108.828 279.611 109.155C279.87 109.482 280 109.927 280 110.488C280 110.922 279.883 111.33 279.65 111.712C279.415 112.095 279.07 112.406 278.611 112.643C278.153 112.882 277.611 113 276.988 113C276.364 113 275.857 112.896 275.385 112.687L275.386 112.69Z" fill="#7E6392"/>
</svg>
