<svg width="495" height="203" viewBox="0 0 495 203" fill="none" xmlns="http://www.w3.org/2000/svg">
<path d="M161.008 202.801H67.9298V192.291H161.008V202.801Z" fill="#7E6392"/>
<path d="M97.3064 127.196C88.7026 127.196 80.3623 125.516 72.513 122.202C64.9272 119 58.1137 114.411 52.2619 108.569C46.4102 102.727 41.8142 95.9246 38.6069 88.3511C35.2872 80.5147 33.6043 72.1854 33.6043 63.5982C33.6043 55.011 35.2872 46.6818 38.6069 38.8453C41.8142 31.2718 46.4102 24.4695 52.2619 18.6272C58.1137 12.785 64.9272 8.19905 72.513 4.9945C80.3597 1.68016 88.7026 0 97.3064 0C105.91 0 114.25 1.68016 122.1 4.9945C129.686 8.1965 136.499 12.785 142.351 18.6272C148.203 24.4695 152.799 31.2718 156.006 38.8453C159.326 46.6818 161.008 55.011 161.008 63.5982C161.008 72.1854 159.326 80.5147 156.006 88.3511C152.799 95.9246 148.203 102.727 142.351 108.569C136.499 114.411 129.686 118.997 122.1 122.202C114.25 125.516 105.908 127.196 97.3064 127.196ZM97.3064 10.4716C90.1195 10.4716 83.1501 11.876 76.5949 14.6439C70.2598 17.3199 64.5666 21.15 59.679 26.0322C54.7889 30.9143 50.9525 36.5957 48.2721 42.9206C45.4997 49.465 44.093 56.4231 44.093 63.5982C44.093 70.7733 45.4997 77.7289 48.2721 84.2759C50.9525 90.6007 54.7889 96.2846 59.679 101.164C64.5691 106.046 70.2598 109.877 76.5949 112.553C83.1501 115.32 90.1169 116.725 97.3064 116.725C104.496 116.725 111.463 115.32 118.018 112.553C124.353 109.877 130.046 106.046 134.934 101.164C139.824 96.2821 143.66 90.6007 146.341 84.2759C149.113 77.7314 150.52 70.7733 150.52 63.5982C150.52 56.4231 149.113 49.465 146.341 42.9206C143.66 36.5957 139.824 30.9118 134.934 26.0322C130.044 21.15 124.353 17.3199 118.018 14.6439C111.463 11.876 104.496 10.4716 97.3064 10.4716Z" fill="#7E6392"/>
<path d="M92.4776 63.8331H83.4979C72.3621 63.8331 61.7864 59.6098 53.7223 51.9418L51.6353 49.9578H77.884L92.4751 63.8331H92.4776Z" fill="#7E6392"/>
<path d="M111.115 63.8331H102.135L116.726 49.9578H142.975L140.888 51.9418C132.824 59.6098 122.251 63.8331 111.112 63.8331H111.115Z" fill="#7E6392"/>
<path d="M97.3064 61.1954L91.0402 55.2383V47.0929L88.5977 44.7258H23.113L0 22.3757H15.1128L27.3689 34.2517H92.851L97.3064 38.5695L101.762 34.2517H167.244L179.5 22.3757H194.562L171.5 44.7233H106.018L103.575 47.0903V55.2357L97.3089 61.1929L97.3064 61.1954Z" fill="#7E6392"/>
<path d="M44.093 179.465L33.6043 170.467V62.4492H44.093V179.465Z" fill="#7E6392"/>
<path d="M161.008 202.801H150.52V62.4492H161.008V202.803V202.801Z" fill="#7E6392"/>
<path d="M149.543 202.763L50.8195 107.104L58.2339 99.7011L156.957 195.36L149.543 202.763Z" fill="#7E6392"/>
<path d="M82.0349 202.801H66.9732L33.6017 170.464V155.871L82.0324 202.801H82.0349Z" fill="#7E6392"/>
<path d="M197.106 105.857C193.009 103.564 189.763 100.385 187.367 96.3204C184.971 92.2553 183.771 87.6566 183.771 82.5191C183.771 77.3816 184.971 72.857 187.367 68.7919C189.763 64.7294 193.012 61.5504 197.106 59.2549C201.201 56.9619 205.697 55.8128 210.593 55.8128C215.488 55.8128 220.045 56.9593 224.117 59.2549C228.189 61.5504 231.409 64.7294 233.782 68.7919C236.153 72.857 237.34 77.4327 237.34 82.5191C237.34 87.6056 236.153 92.2553 233.782 96.3204C231.409 100.385 228.173 103.564 224.079 105.857C219.981 108.153 215.488 109.299 210.593 109.299C205.697 109.299 201.201 108.153 197.106 105.857ZM218.91 97.8167C221.306 96.3944 223.181 94.3645 224.529 91.7191C225.877 89.0763 226.552 86.0097 226.552 82.5191C226.552 79.0286 225.877 75.9747 224.529 73.3549C223.181 70.7376 221.306 68.7306 218.91 67.3339C216.513 65.9372 213.741 65.2401 210.593 65.2401C207.444 65.2401 204.661 65.9397 202.239 67.3339C199.817 68.7306 197.932 70.7376 196.582 73.3549C195.234 75.9721 194.559 79.0286 194.559 82.5191C194.559 86.0097 195.234 89.0763 196.582 91.7191C197.93 94.3619 199.815 96.3944 202.239 97.8167C204.661 99.239 207.447 99.9488 210.593 99.9488C213.738 99.9488 216.511 99.239 218.91 97.8167Z" fill="#7E6392"/>
<path d="M255.622 53.4203V108.773H245.133V53.4203H255.622Z" fill="#7E6392"/>
<path d="M266.673 60.6388C265.448 59.4668 264.837 58.0088 264.837 56.2622C264.837 54.5157 265.448 53.0577 266.673 51.8857C267.896 50.7136 269.433 50.1289 271.282 50.1289C273.131 50.1289 274.665 50.7162 275.891 51.8857C277.113 53.0577 277.727 54.5157 277.727 56.2622C277.727 58.0088 277.116 59.4668 275.891 60.6388C274.665 61.8108 273.131 62.3956 271.282 62.3956C269.433 62.3956 267.898 61.8108 266.673 60.6388ZM276.451 67.3339V108.773H265.962V67.3339H276.451Z" fill="#7E6392"/>
<path d="M304.098 99.1241L314.587 67.3339H325.751L310.393 108.773H297.656L282.372 67.3339H293.61L304.098 99.1241Z" fill="#7E6392"/>
<path d="M369.956 91.1957H339.613C339.861 94.1883 340.912 96.5323 342.759 98.2278C344.606 99.9233 346.879 100.771 349.577 100.771C353.473 100.771 356.245 99.1011 357.895 95.7586H369.207C368.008 99.7496 365.711 103.028 362.314 105.594C358.918 108.163 354.746 109.448 349.803 109.448C345.805 109.448 342.222 108.562 339.05 106.792C335.879 105.022 333.406 102.518 331.633 99.2747C329.861 96.0344 328.973 92.2936 328.973 88.055C328.973 83.8163 329.846 80.0014 331.595 76.7611C333.342 73.5208 335.792 71.0261 338.938 69.2822C342.084 67.5382 345.705 66.6649 349.803 66.6649C353.9 66.6649 357.281 67.5126 360.404 69.2081C363.524 70.9036 365.949 73.3115 367.672 76.4266C369.396 79.5444 370.258 83.1217 370.258 87.1613C370.258 88.6576 370.158 90.0032 369.959 91.2008L369.956 91.1957ZM359.391 84.1635C359.34 81.4697 358.365 79.3146 356.47 77.6931C354.572 76.0743 352.248 75.2623 349.503 75.2623C346.905 75.2623 344.721 76.0487 342.948 77.6191C341.176 79.1895 340.089 81.3726 339.69 84.1635H359.394H359.391Z" fill="#7E6392"/>
<path d="M378.609 60.6388C377.384 59.4668 376.772 58.0088 376.772 56.2622C376.772 54.5157 377.384 53.0577 378.609 51.8857C379.831 50.7136 381.368 50.1289 383.218 50.1289C385.067 50.1289 386.601 50.7162 387.826 51.8857C389.049 53.0577 389.663 54.5157 389.663 56.2622C389.663 58.0088 389.051 59.4668 387.826 60.6388C386.601 61.8108 385.067 62.3956 383.218 62.3956C381.368 62.3956 379.834 61.8108 378.609 60.6388ZM388.386 67.3339V108.773H377.898V67.3339H388.386Z" fill="#7E6392"/>
<path d="M414.497 68.6055C416.671 67.3594 419.154 66.7364 421.952 66.7364V77.7315H419.18C415.883 77.7315 413.397 78.5051 411.725 80.05C410.049 81.5973 409.216 84.2887 409.216 88.129V108.773H398.727V67.3339H409.216V73.766C410.563 71.5726 412.326 69.8516 414.497 68.6055Z" fill="#7E6392"/>
<path d="M428.807 76.7586C430.479 73.5183 432.753 71.0236 435.625 69.2796C438.497 67.5356 441.705 66.6623 445.252 66.6623C448.349 66.6623 451.058 67.2854 453.38 68.5315C455.702 69.7775 457.562 71.3504 458.961 73.2451V67.3364H469.526V108.776H458.961V102.717C457.613 104.662 455.751 106.269 453.38 107.543C451.007 108.814 448.273 109.45 445.175 109.45C441.679 109.45 438.495 108.551 435.623 106.756C432.751 104.961 430.477 102.431 428.804 99.1649C427.129 95.8991 426.295 92.1455 426.295 87.9069C426.295 83.6682 427.132 80.004 428.804 76.7611L428.807 76.7586ZM457.465 81.508C456.465 79.6874 455.117 78.2906 453.418 77.3203C451.72 76.3475 449.897 75.8623 447.948 75.8623C445.999 75.8623 444.201 76.3373 442.554 77.2846C440.907 78.2319 439.569 79.6159 438.546 81.4365C437.52 83.2571 437.009 85.4147 437.009 87.9069C437.009 90.399 437.52 92.5822 438.546 94.4513C439.569 96.3204 440.917 97.7554 442.592 98.7513C444.265 99.7496 446.05 100.248 447.95 100.248C449.851 100.248 451.72 99.7624 453.421 98.7896C455.119 97.8167 456.467 96.4225 457.467 94.6019C458.465 92.7813 458.966 90.6007 458.966 88.0575C458.966 85.5143 458.467 83.3337 457.467 81.5131L457.465 81.508Z" fill="#7E6392"/>
<path d="M226.552 173.434L220.859 167.824C216.012 172.162 210.094 174.333 203.101 174.333C199.255 174.333 195.871 173.671 192.95 172.351C190.029 171.031 187.769 169.159 186.17 166.741C184.572 164.323 183.774 161.517 183.774 158.325C183.774 154.883 184.748 151.794 186.694 149.049C188.643 146.306 191.513 144.087 195.311 142.392C193.963 140.747 192.989 139.164 192.39 137.643C191.792 136.121 191.49 134.489 191.49 132.742C191.49 130.35 192.114 128.192 193.362 126.272C194.61 124.352 196.395 122.843 198.72 121.747C201.042 120.652 203.751 120.1 206.848 120.1C209.945 120.1 212.692 120.698 214.94 121.896C217.189 123.093 218.861 124.689 219.961 126.683C221.058 128.677 221.534 130.899 221.386 133.34H211.196C211.245 131.693 210.846 130.437 209.997 129.563C209.147 128.693 207.999 128.254 206.549 128.254C205.099 128.254 203.989 128.665 203.065 129.487C202.14 130.309 201.679 131.369 201.679 132.666C201.679 133.963 202.053 135.148 202.802 136.368C203.551 137.591 204.774 139.098 206.472 140.893L219.659 153.908C219.759 153.808 219.833 153.709 219.884 153.609C219.933 153.509 219.984 153.41 220.035 153.31L224.306 146.204H235.245L230 155.404C229 157.35 227.925 159.193 226.777 160.94L239.44 173.431H226.552V173.434ZM214.265 161.318L201.377 148.602C196.531 150.747 194.109 153.788 194.109 157.728C194.109 159.972 194.958 161.854 196.656 163.376C198.354 164.898 200.603 165.656 203.401 165.656C207.495 165.656 211.117 164.211 214.265 161.318Z" fill="#7E6392"/>
<path d="M307.17 173.434H296.681L272.931 137.604V173.434H262.443V121.147H272.931L296.681 157.051V121.147H307.17V173.434Z" fill="#7E6392"/>
<path d="M356.693 131.994V173.434H346.127V168.197C344.779 169.992 343.017 171.401 340.846 172.423C338.674 173.444 336.314 173.957 333.766 173.957C330.518 173.957 327.646 173.273 325.15 171.899C322.651 170.528 320.692 168.508 319.267 165.84C317.843 163.172 317.132 159.993 317.132 156.303V131.992H327.62V154.807C327.62 158.098 328.444 160.628 330.094 162.398C331.741 164.168 333.989 165.054 336.838 165.054C339.687 165.054 342.007 164.168 343.657 162.398C345.304 160.628 346.13 158.098 346.13 154.807V131.992H356.695L356.693 131.994Z" fill="#7E6392"/>
<path d="M402.021 136.072C405.067 139.19 406.591 143.541 406.591 149.125V173.436H396.103V150.548C396.103 147.256 395.279 144.726 393.63 142.956C391.982 141.187 389.734 140.301 386.885 140.301C384.036 140.301 381.703 141.187 380.031 142.956C378.356 144.726 377.522 147.256 377.522 150.548V173.436H367.033V131.997H377.522V137.157C378.921 135.362 380.706 133.953 382.88 132.931C385.054 131.91 387.438 131.397 390.036 131.397C394.98 131.397 398.977 132.957 402.024 136.072H402.021Z" fill="#7E6392"/>
<path d="M454.843 155.856H424.5C424.748 158.849 425.799 161.193 427.646 162.888C429.492 164.584 431.766 165.431 434.464 165.431C438.359 165.431 441.132 163.762 442.781 160.419H454.094C452.894 164.41 450.597 167.689 447.201 170.255C443.805 172.824 439.633 174.108 434.689 174.108C430.692 174.108 427.109 173.222 423.937 171.452C420.766 169.683 418.292 167.178 416.52 163.935C414.748 160.695 413.86 156.954 413.86 152.715C413.86 148.477 414.732 144.662 416.482 141.422C418.229 138.181 420.679 135.687 423.825 133.943C426.97 132.199 430.592 131.325 434.689 131.325C438.786 131.325 442.168 132.173 445.29 133.869C448.411 135.564 450.835 137.972 452.559 141.087C454.283 144.205 455.145 147.782 455.145 151.822C455.145 153.318 455.045 154.664 454.846 155.861L454.843 155.856ZM444.278 148.827C444.227 146.133 443.252 143.978 441.357 142.356C439.459 140.737 437.134 139.925 434.39 139.925C431.791 139.925 429.607 140.712 427.835 142.282C426.062 143.852 424.975 146.036 424.576 148.827H444.28H444.278Z" fill="#7E6392"/>
<path d="M469.526 172.275C466.828 171.054 464.695 169.394 463.119 167.301C461.547 165.207 460.685 162.888 460.534 160.345H471.099C471.299 161.941 472.084 163.264 473.46 164.31C474.833 165.357 476.544 165.881 478.593 165.881C480.642 165.881 482.151 165.483 483.276 164.683C484.399 163.887 484.961 162.863 484.961 161.617C484.961 160.271 484.273 159.26 482.9 158.588C481.526 157.914 479.342 157.179 476.345 156.382C473.248 155.634 470.713 154.863 468.741 154.064C466.767 153.267 465.071 152.044 463.646 150.399C462.222 148.755 461.511 146.536 461.511 143.743C461.511 141.45 462.173 139.356 463.495 137.459C464.818 135.564 466.718 134.068 469.189 132.97C471.662 131.874 474.57 131.325 477.918 131.325C482.862 131.325 486.808 132.559 489.757 135.028C492.703 137.497 494.327 140.824 494.626 145.014H484.588C484.437 143.367 483.752 142.06 482.527 141.087C481.301 140.114 479.667 139.629 477.618 139.629C475.721 139.629 474.258 139.979 473.235 140.676C472.209 141.376 471.698 142.348 471.698 143.595C471.698 144.991 472.396 146.051 473.795 146.774C475.194 147.496 477.365 148.232 480.314 148.98C483.312 149.728 485.785 150.502 487.731 151.298C489.68 152.097 491.366 153.331 492.788 155.001C494.212 156.673 494.946 158.879 494.997 161.622C494.997 164.014 494.335 166.159 493.013 168.054C491.688 169.948 489.79 171.432 487.319 172.504C484.846 173.577 481.961 174.113 478.665 174.113C475.368 174.113 472.222 173.503 469.524 172.28L469.526 172.275Z" fill="#7E6392"/>
<path d="M187.252 199.218L185.968 202.77H183.766L189.549 186.893H191.958L197.718 202.77H195.515L194.232 199.218H187.252ZM193.633 197.523L190.74 189.459L187.848 197.523H193.633Z" fill="#7E6392"/>
<path d="M230.872 187.82C232.148 188.468 233.128 189.398 233.81 190.603C234.491 191.811 234.831 193.231 234.831 194.865C234.831 196.499 234.491 197.916 233.81 199.114C233.13 200.314 232.151 201.23 230.872 201.864C229.593 202.497 228.084 202.814 226.34 202.814H221.36V186.844H226.34C228.084 186.844 229.595 187.169 230.872 187.817V187.82ZM231.066 199.458C232.153 198.366 232.695 196.836 232.695 194.865C232.695 192.894 232.148 191.328 231.053 190.212C229.959 189.097 228.388 188.54 226.337 188.54H223.444V201.095H226.337C228.404 201.095 229.979 200.549 231.064 199.456L231.066 199.458Z" fill="#7E6392"/>
<path d="M272.691 186.847L266.655 202.816H264.246L258.21 186.847H260.435L265.461 200.618L270.486 186.847H272.691Z" fill="#7E6392"/>
<path d="M298.743 201.945C297.518 201.251 296.551 200.281 295.84 199.035C295.129 197.791 294.773 196.389 294.773 194.829C294.773 193.269 295.129 191.87 295.84 190.626C296.551 189.383 297.518 188.412 298.743 187.715C299.968 187.021 301.321 186.673 302.804 186.673C304.288 186.673 305.666 187.021 306.889 187.715C308.114 188.41 309.075 189.377 309.781 190.613C310.485 191.852 310.838 193.256 310.838 194.829C310.838 196.402 310.485 197.809 309.781 199.045C309.078 200.283 308.114 201.248 306.889 201.943C305.664 202.637 304.303 202.985 302.804 202.985C301.305 202.985 299.965 202.637 298.743 201.943V201.945ZM305.822 200.398C306.717 199.88 307.421 199.137 307.935 198.177C308.446 197.214 308.704 196.101 308.704 194.832C308.704 193.563 308.449 192.429 307.935 191.474C307.423 190.519 306.722 189.783 305.835 189.263C304.947 188.744 303.937 188.484 302.807 188.484C301.676 188.484 300.663 188.744 299.778 189.263C298.891 189.781 298.19 190.519 297.679 191.474C297.167 192.429 296.909 193.547 296.909 194.832C296.909 196.116 297.165 197.214 297.679 198.177C298.19 199.139 298.896 199.88 299.791 200.398C300.686 200.916 301.692 201.177 302.809 201.177C303.927 201.177 304.932 200.916 305.827 200.398H305.822Z" fill="#7E6392"/>
<path d="M345.114 191.497C344.669 190.565 344.027 189.845 343.186 189.331C342.345 188.821 341.365 188.563 340.247 188.563C339.13 188.563 338.125 188.818 337.229 189.331C336.334 189.845 335.631 190.578 335.117 191.53C334.605 192.485 334.347 193.588 334.347 194.842C334.347 196.096 334.603 197.193 335.117 198.141C335.628 199.088 336.334 199.818 337.229 200.329C338.125 200.84 339.13 201.098 340.247 201.098C341.807 201.098 343.094 200.633 344.102 199.701C345.112 198.769 345.7 197.51 345.869 195.919H339.49V194.224H348.097V195.827C347.974 197.142 347.562 198.345 346.856 199.435C346.153 200.528 345.227 201.391 344.079 202.025C342.93 202.658 341.654 202.974 340.247 202.974C338.764 202.974 337.408 202.627 336.186 201.933C334.961 201.238 333.994 200.27 333.283 199.035C332.572 197.796 332.216 196.399 332.216 194.842C332.216 193.284 332.572 191.882 333.283 190.639C333.994 189.395 334.961 188.425 336.186 187.728C337.411 187.033 338.764 186.686 340.247 186.686C341.946 186.686 343.449 187.107 344.756 187.948C346.063 188.788 347.017 189.972 347.613 191.499H345.112L345.114 191.497Z" fill="#7E6392"/>
<path d="M374.023 199.218L372.739 202.77H370.537L376.32 186.893H378.729L384.489 202.77H382.287L381.003 199.218H374.023ZM380.404 197.523L377.512 189.459L374.619 197.523H380.404Z" fill="#7E6392"/>
<path d="M417.643 187.82C418.919 188.468 419.899 189.398 420.581 190.603C421.262 191.811 421.602 193.231 421.602 194.865C421.602 196.499 421.262 197.916 420.581 199.114C419.901 200.314 418.922 201.23 417.643 201.864C416.364 202.497 414.855 202.814 413.111 202.814H408.131V186.844H413.111C414.855 186.844 416.367 187.169 417.643 187.817V187.82ZM417.837 199.458C418.924 198.366 419.466 196.836 419.466 194.865C419.466 192.894 418.919 191.328 417.824 190.212C416.73 189.097 415.159 188.54 413.108 188.54H410.216V201.095H413.108C415.175 201.095 416.75 200.549 417.835 199.456L417.837 199.458Z" fill="#7E6392"/>
<path d="M448.158 201.945C446.932 201.251 445.966 200.281 445.255 199.035C444.544 197.791 444.188 196.389 444.188 194.829C444.188 193.269 444.544 191.87 445.255 190.626C445.966 189.383 446.932 188.412 448.158 187.715C449.383 187.021 450.736 186.673 452.219 186.673C453.702 186.673 455.081 187.021 456.303 187.715C457.529 188.41 458.49 189.377 459.196 190.613C459.899 191.852 460.252 193.256 460.252 194.829C460.252 196.402 459.899 197.809 459.196 199.045C458.493 200.283 457.529 201.248 456.303 201.943C455.078 202.637 453.718 202.985 452.219 202.985C450.72 202.985 449.38 202.637 448.158 201.943V201.945ZM455.237 200.398C456.132 199.88 456.835 199.137 457.35 198.177C457.861 197.214 458.119 196.101 458.119 194.832C458.119 193.563 457.864 192.429 457.35 191.474C456.838 190.519 456.137 189.783 455.25 189.263C454.362 188.744 453.352 188.484 452.222 188.484C451.091 188.484 450.078 188.744 449.193 189.263C448.306 189.781 447.605 190.519 447.094 191.474C446.582 192.429 446.324 193.547 446.324 194.832C446.324 196.116 446.579 197.214 447.094 198.177C447.605 199.139 448.311 199.88 449.206 200.398C450.101 200.916 451.106 201.177 452.224 201.177C453.342 201.177 454.347 200.916 455.242 200.398H455.237Z" fill="#7E6392"/>
<path d="M486.844 202.438C486.01 202.065 485.355 201.545 484.882 200.881C484.406 200.217 484.163 199.448 484.148 198.577H486.373C486.45 199.326 486.759 199.956 487.302 200.467C487.844 200.978 488.637 201.236 489.678 201.236C490.719 201.236 491.455 200.988 492.031 200.49C492.603 199.995 492.89 199.356 492.89 198.577C492.89 197.967 492.721 197.469 492.386 197.089C492.048 196.708 491.629 196.417 491.123 196.218C490.619 196.019 489.936 195.804 489.079 195.577C488.023 195.301 487.179 195.028 486.542 194.752C485.908 194.477 485.363 194.045 484.913 193.458C484.46 192.871 484.235 192.079 484.235 191.086C484.235 190.215 484.457 189.444 484.9 188.772C485.342 188.101 485.966 187.58 486.77 187.215C487.573 186.847 488.493 186.666 489.534 186.666C491.033 186.666 492.261 187.041 493.217 187.789C494.174 188.537 494.713 189.531 494.836 190.767H492.542C492.465 190.156 492.143 189.617 491.578 189.15C491.013 188.685 490.261 188.451 489.33 188.451C488.458 188.451 487.747 188.675 487.197 189.127C486.647 189.579 486.371 190.207 486.371 191.017C486.371 191.596 486.534 192.071 486.864 192.436C487.194 192.804 487.598 193.082 488.082 193.271C488.562 193.463 489.24 193.68 490.112 193.925C491.169 194.216 492.018 194.502 492.66 194.783C493.302 195.066 493.854 195.501 494.312 196.088C494.77 196.675 495 197.474 495 198.483C495 199.262 494.793 199.995 494.381 200.681C493.967 201.368 493.355 201.928 492.545 202.354C491.734 202.783 490.777 202.995 489.675 202.995C488.573 202.995 487.675 202.808 486.841 202.433L486.844 202.438Z" fill="#7E6392"/>
</svg>
