<svg width="40" height="40" viewBox="0 0 40 40" xmlns="http://www.w3.org/2000/svg">
<path d="M34.0024 5.81512C32.1689 3.96386 29.9851 2.49624 27.5785 1.49787C25.1718 0.499491 22.5904 -0.00965202 19.9849 0.000138562C9.06747 0.000138562 0.169999 8.89511 0.159999 19.8151C0.159999 23.3126 1.075 26.715 2.80249 29.7275L0 40L10.51 37.245C13.4162 38.8306 16.6743 39.6602 19.9849 39.6575H19.9949C30.9149 39.6575 39.8099 30.7625 39.8199 19.8326C39.8221 17.2277 39.309 14.6482 38.3102 12.2425C37.3113 9.83673 35.8489 7.65236 34.0024 5.81512ZM19.9849 36.3025C17.0329 36.3002 14.1355 35.5059 11.595 34.0025L10.995 33.6425L4.75998 35.2775L6.42498 29.195L6.03498 28.5675C4.3845 25.9434 3.51161 22.9051 3.51749 19.8051C3.51749 10.7401 10.91 3.34513 19.9949 3.34513C22.1593 3.34124 24.303 3.76581 26.3025 4.59435C28.3019 5.42289 30.1176 6.63901 31.6449 8.17261C33.1771 9.70048 34.3919 11.5165 35.2191 13.5159C36.0464 15.5154 36.4697 17.6588 36.4649 19.8226C36.4549 28.92 29.0624 36.3025 19.9849 36.3025ZM29.0224 23.9676C28.5299 23.7201 26.0974 22.5226 25.6399 22.3526C25.1849 22.1901 24.8524 22.1051 24.5274 22.6001C24.1949 23.0926 23.2449 24.2151 22.9599 24.5376C22.6749 24.8701 22.3799 24.9076 21.8849 24.6626C21.3924 24.4126 19.7949 23.8926 17.9049 22.2001C16.4299 20.8876 15.4424 19.2626 15.1474 18.7701C14.8624 18.2751 15.1199 18.0101 15.3674 17.7626C15.5849 17.5426 15.8599 17.1826 16.1074 16.8976C16.3574 16.6126 16.4399 16.4026 16.6024 16.0726C16.7649 15.7376 16.6874 15.4526 16.5649 15.2051C16.4399 14.9576 15.4524 12.5151 15.0349 11.5301C14.6349 10.5576 14.2275 10.6926 13.9225 10.6801C13.6375 10.6626 13.305 10.6626 12.9725 10.6626C12.7214 10.669 12.4744 10.7271 12.2468 10.8334C12.0192 10.9396 11.816 11.0917 11.65 11.2801C11.195 11.7751 9.92247 12.9726 9.92247 15.4151C9.92247 17.8576 11.6975 20.2051 11.9475 20.5376C12.1925 20.8701 15.4324 25.8675 20.4049 28.0175C21.5799 28.53 22.5049 28.8325 23.2274 29.0625C24.4149 29.4425 25.4874 29.385 26.3424 29.2625C27.2924 29.1175 29.2699 28.0625 29.6874 26.905C30.0974 25.7451 30.0974 24.7551 29.9724 24.5476C29.8499 24.3376 29.5174 24.2151 29.0224 23.9676Z"/>
</svg>
